<?xml version="1.0" encoding="utf-8"?>
<!-- Generator: Adobe Illustrator 23.0.3, SVG Export Plug-In . SVG Version: 6.00 Build 0)  -->
<svg version="1.1" id="Layer_1" xmlns="http://www.w3.org/2000/svg" xmlns:xlink="http://www.w3.org/1999/xlink" x="0px" y="0px"
	 viewBox="0 0 100 100" style="enable-background:new 0 0 100 100;" xml:space="preserve">
<path d="M65.7,86.4c-6.8,1.4-13.7,2.6-20.6,4c-4.9,1-9.8,2.1-14.7,3c-0.2,0-0.5-0.1-0.7-0.1c0,0,0,0,0,0c-2.6-3.5-5.1-7.1-7.8-10.6
	c-2.2-2.9-3.7-6.5-6.2-9.2l0,0c-0.1-0.5-0.1-1.1-0.2-1.6c0.1-0.6,0-1.1-0.2-1.6c0.3-8.9,0-17.8,0-26.8c0-1,0-2,0.1-3
	c0.9,0,1-0.8,1.1-1.6c0.6-0.2,0.9-0.6,1-1.3c0.3-0.4,0.5-0.8,0.8-1.2c2.2-1.4,3.6-4,5.7-5.6c2.3-1.8,4.4-3.9,7.2-4.5
	c0,4,0,7.9,0,11.9c0.1,10.9,0.3,21.7,0.3,32.6c0,1.5,0.5,1.6,1.6,1.3c5.4-1.1,10.6-2.7,16-3.5c0.1,0.4,0.2,0.8,0.6,0.9
	c1.7,0.3,2.6,1.8,3.7,3.1c2.4,2.8,4.8,5.6,7.2,8.4c0.4,0.5,0.8,0.9,1.3,0.9c2.5,0,3.3,1.9,4,4.2c0,0,0,0,0,0
	C65.9,86.1,65.8,86.2,65.7,86.4z"/>
<path d="M76.9,28.1c0.2,13.4,0.1,26.7,0,40.1c0,0.9,0,1.7,0,2.6c0,0,0,0,0,0c-0.2,0.4-0.5,0.8-0.7,1.2c0,0,0,0,0,0
	c-0.4,0.4-0.7,0.8-1.1,1.2l0,0c-0.4,0.3-0.8,0.6-1.2,1c0,0-0.1,0.1-0.1,0.1c-0.4,0.3-0.8,0.6-1.3,1c0,0,0-0.1,0-0.1
	c-0.7,0.3-1.4,0.6-2.1,1c-0.1-0.1-0.2-0.1-0.2,0c-1.7,0.1-3.4-0.3-5-0.8l-0.1,0c-0.5-0.3-1.1-0.6-1.6-0.9c0,0,0,0,0,0
	c-0.4-0.3-0.7-0.6-1.1-0.9c-1-1.2-2-2.3-3.1-3.5c-0.1-0.2-0.3-0.4-0.4-0.6c-0.3-1-1.4-1.2-1.7-2.2c0.4-0.7,1.2-0.8,1.7-0.8
	c2.1,0.2,2.2-1.1,2.2-3c0-8,0-16.1,0.1-24.1c3.8-1.2,7.1-3.1,10.1-6C73.2,31.6,75.1,29.9,76.9,28.1z"/>
<path d="M69.1,24.9c-2.8,1.5-5.4,3.4-8.3,5.4c0-1.6,0-2.9,0-4.2c0-6.6,0-13.3,0-19.9c0-1.3,0.2-2,1.4-2.1c4.5-0.5,8.7-2.4,13.2-3
	c1.3-0.2,1.7,0.1,1.7,1.7c-0.1,4-0.1,8.1,0,12.1c0,1.6-0.3,2.7-1.4,3.6c0,0,0,0.1,0,0.1c-0.7,0.6-1.4,1.2-2.1,1.8c0,0,0-0.1,0-0.1
	c-1.5-0.1-3-0.3-4.2,1c1.9,1.5,1.9,1.5,0,3.2C69.2,24.6,69.2,24.8,69.1,24.9C69.1,24.9,69.1,24.9,69.1,24.9z"/>
<path d="M26.3,17.7c1.4,0.8,2.6-0.3,3.8-0.8c5.1-2.2,9.4,2.4,9.6,8c0.4,7-2.5,14.2-7,18.1c-0.9-2.7,0.2-4.7,1.7-6.5
	c2.3-2.7,3.7-6,4.2-9.7c0.6-4-3-8.9-6.5-8.8c-0.6,0-1.6-0.3-1.6,1.1c-0.1,0-0.2-0.1-0.2-0.3c-0.3,0-0.4,0.1-0.4,0.4l0,0
	c-0.5,0-1.1-0.2-1.1,0.8l0,0c-0.3,0-0.6,0-0.7,0.5l0,0c-0.4-0.1-0.7,0-0.7,0.5l0,0c-0.4-0.1-0.6,0-0.7,0.5l0-0.1
	c-0.6-0.2-1.1,0-1.3,0.8c0,0.3-0.1,0.4-0.3,0.3c-0.7-0.1-1.4-0.2-1.5,1l0.1,0c-1.1-0.3-1.3,0.3-1.1,1.3c-0.1,0.4-0.2,0.6-0.6,0.5
	c-0.4-0.1-0.8-0.1-0.9,0.5l0.1,0l0,0.1c-0.9-0.3-1.4-0.1-1,1.1l-0.1,0c-0.9-0.3-1.5-0.1-1.4,1.2l-0.1-0.1c-0.4-0.2-0.7-0.1-0.7,0.5
	l0,0c-1,0-1.9,0.3-2.4,1.5l0,0c-0.8-0.4-1.2,0.4-1.8,0.8c-3.9,2.4-7.3,5.5-9.6,10c-0.1,0.2-0.4,0.2-0.6,0.4
	c-0.4-1.1,0.7-2.2-0.2-3.1c0.1-0.8,0.2-1.6,0.3-2.4c-0.1-2,0.7-3.4,3-4.3c3.5-1.4,6.1-4,8.5-7c0.3-0.4,0.5-0.8,0.5-1.2
	c0.1,0,0.2,0,0.3,0c0.1,0.1,0.2,0.1,0.2,0.2c0-0.1-0.1-0.2-0.1-0.3l0.1,0.1c0.6,0,0.8-0.3,0.8-0.9c0.1-0.2,0.2-0.4,0.5-0.2
	c0.2-0.1,0.5-0.3,0.7-0.4l0,0c0.5,0.1,1,0.2,1.2-0.5l0,0c1.3,0.1,2.3-0.3,2.9-1.8c0.1,0,0.2-0.1,0.3-0.1c0.3,0.4,0.6,0.5,0.7-0.2
	l0,0.1c0.4,0.1,0.7,0,0.8-0.6c0.2-0.1,0.4-0.2,0.6-0.2C25.6,19.1,26,18.7,26.3,17.7L26.3,17.7z"/>
<path d="M75.6,18.5C75.6,18.5,75.6,18.5,75.6,18.5c0.7-0.1,1.3-0.2,1.8-0.7c1.9-2,3.9-4,5.9-5.9c0.3-0.3,0.6-0.7,0.4-1.2
	c0,0,0,0,0,0c1.1,0.1,2-0.1,2.1-1.7c0,0,0,0,0,0c0.6,0.1,1.2,0.2,1.1-0.9c0,0,0,0.1,0,0.1c0.7,0.2,1.1,0,1-0.9c0,0,0,0,0,0
	c0.4,0.2,0.8,0.2,0.6-0.5c0,0,0,0,0,0c1.4-0.1,2.5-0.6,2.9-2.3c0,0,0,0,0,0c0.5,0.3,1,0.3,1.5,0.1c2-1,4.1-0.6,6.2-0.6
	c-1.1,0.2-2.1,1-3.2,1.3c-0.5,0.2-1.1,0.4-0.7,1.2c0,0-0.1-0.1-0.1-0.1c-1.2-0.5-2.2,0.3-3,1c-1.2,1-3.1,1-3.5,3l-0.1,0.1
	c-1.2-0.3-1.8,0.2-1.8,1.6c-0.5,0.4-0.8,1.3-1.6,1.4c-0.1,0-0.2-0.1-0.4-0.1c0.1,0.1,0.1,0.2,0.2,0.3l0,0c-0.4-0.3-0.8-0.1-1.1,0.2
	c-2.5,2.1-4.7,4.7-7,7.2c-0.1,0.1-0.1,0.5-0.2,0.7c0,0,0-0.1,0-0.1c-0.2,0-0.4,0.2-0.4,0.5l0,0c-0.4-0.2-0.7-0.1-0.7,0.4l0.1-0.1
	c-0.4,0.1-0.5,0.4-0.5,0.8c0,0.3-0.2,0.4-0.4,0.4c-0.6,0-1,0.1-0.9,0.9l0,0c-0.9-0.1-1.6,0-1.4,1.3l-0.1-0.1c-0.3,0-0.4,0.2-0.4,0.5
	l0,0c-0.4-0.1-0.7-0.1-0.7,0.5l0,0c-0.8-0.3-0.8,0.3-0.8,0.9c0,0.1-0.1,0.2-0.2,0.1c-0.5-0.1-1,0.1-0.9,0.9l0,0
	c-1.1-0.1-1.8,0.3-1.8,1.7l0-0.1c-0.5-0.1-0.9-0.2-1,0.5l0.1,0l0,0.1c-1.7-0.2-2.9,1-4.2,1.7c-0.2,0.1-0.1,0.5,0.1,0.7l0,0
	c-1.7-0.3-3.2,0.9-3.8,3.2c-0.7,2.8-0.6,5.4,0.9,7.9c0.4,0.7,1,1.4,0.7,2.4c-4.2-3.9-5.6-10.3-0.6-14.2c2.7-2.1,5.5-3.9,8.3-5.8
	c0.6-0.4,1.4-0.5,1-1.7c0,0,0,0,0,0c1.6,0.3,2.9-0.9,2.3-2.5c-0.3-1-0.2-1.1,0.6-1.2c0.5,0,1.4,0.4,1.4-0.9c0,0,0,0.1,0,0.1
	C74.7,20.6,75.5,20.2,75.6,18.5z"/>
<path d="M17.8,22c-0.3-0.3-0.4,0-0.5,0.2c-0.4,0.2-0.9,0.2-0.8,0.9c0,0-0.1-0.1-0.1-0.1c-0.1,0-0.1,0-0.1,0.1c-0.1,0-0.2,0-0.3,0
	c0-2.2,0-4.4,0-6.6c0-1,0.3-1.3,1.1-1.5c4.7-1.1,9.4-2.3,14.2-3.4c0.3,1.1,0.1,2.3,0.1,3.4c0,0.7-0.2,0.9-0.8,1
	c-1.5,0.4-2.9,1-4.2,1.7c0,0,0,0.1,0,0.1c-0.6-0.2-1,0.2-1.4,0.5c-0.2,0.1-0.4,0.2-0.6,0.2c-0.3,0.1-0.7,0.1-0.8,0.6
	c0,0,0-0.1,0-0.1c-0.2,0.1-0.5,0.1-0.7,0.2c-0.1,0-0.2,0.1-0.3,0.1c-1,0.5-2.1,0.7-2.9,1.8c0,0,0,0,0,0c-0.5-0.3-0.9,0.1-1.2,0.5
	c0,0,0,0,0,0C18.2,21.6,17.9,21.6,17.8,22z"/>
<path d="M65.2,75.3c0,0,0.1,0,0.1,0c1.1,1.8,3.7,2.2,5,0.8c0.1-0.1,0.1-0.1,0.2,0c1,0.6,1.8,0.5,2.1-1c0,0,0,0.1,0,0.1
	c0.7,0.2,1.4,0.4,1.3-1c0,0,0.1-0.1,0.1-0.1c1,0.6,1.1-0.1,1.2-1c0,0,0,0,0,0c0.9,0.2,1.3-0.2,1.1-1.2c0,0,0,0,0,0
	c0.9,0.1,0.7-0.6,0.7-1.2c0,0,0,0,0,0c2.1-1.5,2.9-4.5,1.8-6.7c-0.6-1.2-1.3-2.3-0.9-3.9c1.1,0.9,1.5,2.2,2.2,3.2
	c0.5,0.7,0.4,1.6,1.5,1.9c0.8,0.2,0.1,1.3-0.2,1.8c-1.7,3-2.5,6.8-5.5,8.7c-0.2,0.1-0.2,0.5-0.3,0.7c-0.2,0-0.4,0.2-0.4-0.1
	c-0.4,0-0.7,0-0.9,0.5l0.1,0l0,0.1c-0.7-0.4-1.4,0.2-2,0.4c-2.1,0.8-4.1,0.8-6.3,0.4c-1.5-0.3-2.8-1.3-4.3-1.4l-0.2,0l0-0.2
	c-0.1-0.3-0.1-0.5-0.4-0.6l0,0.1c0-0.6-0.3-0.8-0.8-0.8l0.1,0c-0.1-0.3-0.3-0.4-0.5-0.5c-0.4-0.6-0.8-1.1-1.2-1.7
	c-0.1-0.3-0.1-0.7-0.5-0.6l0.1,0c0-0.3-0.1-0.5-0.4-0.4l-0.1,0c0.1-1.7-0.8-2.3-2-2.7l0-0.2c0.1-0.6-0.3-0.8-0.7-0.9
	c-0.2-0.1-0.4-0.3-0.6-0.4c-0.6-1.9-0.7-2-3.9-2.2c1.2-1.8,2.7-1.8,4.6-0.1c0.7,0.7,1.1,1.7,2.2,1.9c0.4,1,1.4,1.2,1.7,2.2
	c0.1,0.2,0.3,0.4,0.4,0.6c1,1.2,2,2.3,3.1,3.5c0,1,0.5,0.9,1.1,0.9c0,0,0,0,0,0C63.9,75.4,64.6,75.2,65.2,75.3z"/>
<path d="M29.8,93.3C29.8,93.3,29.8,93.3,29.8,93.3c0.4,2.7,2.5,3.3,4.3,4.1c1.8,0.8,3.5,0.3,5.3-1.5c-1.6,4.1-4.4,3.4-7.1,2.3
	c-2.4-1-4-3.5-6.2-4.9c0,0,0.1-0.1,0.1-0.1s0.1,0,0.1,0c-0.2-0.7-0.6-1.2-1.2-1.3c-0.4,0-0.5-0.2-0.5-0.6c-0.1-0.2-0.2-0.4-0.4-0.6
	c0,0,0,0,0,0c0-0.3-0.1-0.4-0.4-0.4l0,0c0-0.2,0.2-0.8-0.3-0.4c-0.3-0.1-0.4-0.4-0.4-0.8c0.4-0.6-0.1-0.4-0.3-0.4l0,0
	c0-0.3-0.1-0.4-0.4-0.4l0,0c0.1-0.4,0-0.7-0.4-0.8l0,0.1c0.1-0.7-0.1-0.9-0.7-0.8l0,0c0.1-0.7-0.1-1-0.7-0.8l0.1,0
	c0-0.3-0.2-0.4-0.4-0.4c0,0,0,0,0,0c-0.1-0.1-0.2-0.3-0.4-0.4c0,0,0,0,0,0c0-0.4-0.1-0.8-0.6-0.8l-0.1,0l0-0.2c0-0.6-0.1-1.1-0.7-1
	l0,0c0.2-1-0.4-1.3-1.1-1.4l0,0c0.1-1,0-1.8-1.1-1.8l0,0.1c0.3-0.6,0.1-1.1-0.3-1.6c-1.4-1.9-2.1-4.1-3.3-6.1c-1.7-3-1-8.6,1.5-11.3
	c0.2,1.6-0.5,3-0.8,4.4c-0.7,3.1,0.9,5.5,1.6,8.2c0,0.1,0.5,0.1,0.8,0.2c0,0,0,0,0,0c0,0.5-0.1,1.1,0.2,1.4c1.2,1.6,2.1,3.6,3.2,5.2
	c2.9,4.1,5.9,8.1,8.8,12.1C28.5,92.9,29,93.6,29.8,93.3z"/>
<path d="M15.7,30.1C15.7,30.1,15.7,30.1,15.7,30.1c0.9-0.3,1.8-0.5,2.3-1.5c0,0,0,0,0,0c0.5,0.3,0.6,0,0.7-0.5c0,0,0.1,0.1,0.1,0.1
	c0.6-0.2,1.1-0.6,1.4-1.2c0,0,0.1,0,0.1,0c0.5-0.2,0.9-0.5,1-1.1l0-0.1c0,0-0.1,0-0.1,0c0.5,0.4,0.6-0.2,0.9-0.5
	c0.3,0,0.5-0.2,0.6-0.5c0.5-0.3,1.1-0.5,1.1-1.3c0,0-0.1,0-0.1,0c0.8,0.2,1.1-0.5,1.5-1c0.3,0.1,0.4,0,0.3-0.3
	c0.6,0,1.1-0.1,1.3-0.8c0,0,0,0.1,0,0.1c0.4,0.1,0.6,0,0.7-0.5c0,0,0,0,0,0c0.4,0.1,0.6-0.1,0.7-0.5c0,0,0,0,0,0
	c0.3,0,0.6-0.1,0.7-0.5c0,0,0,0,0,0c0.4-0.1,0.9-0.2,1.1-0.8c0,0,0,0,0,0c0.3,0,0.5,0,0.4-0.4c0,0.2,0,0.3,0.2,0.3
	c0.6-0.2,0.8-0.1,0.8,0.7c-0.1,1.4-0.1,2.8-0.1,4.2c-1.7-0.1-3,0.9-4.3,1.8c-1.4,1-2.7,2.2-4.1,3.2c-1.2,0.8-3.1,0.5-3.5,2.6
	c-1.4,0.6-1.9,2.1-2.8,3.3c-0.3,0.1-0.6,0.3-1,0.4C15.5,33.6,15.5,31.8,15.7,30.1z"/>
<path d="M66.1,86.2c-0.7-2.2-1.6-4.2-4-4.2c-0.5,0-0.9-0.4-1.3-0.9c-2.4-2.8-4.8-5.6-7.2-8.4c-1.1-1.3-2-2.8-3.7-3.1
	c-0.4-0.1-0.6-0.4-0.6-0.9c1.1-0.7,2.3-0.8,3.6-0.9c0.1,0.5-0.8,1-0.2,1.2c2.4,1.1,3.6,3.7,5.2,5.8c3.2,4.4,7.2,6.4,11.9,7.5
	c1.2,1.1,0.9,1.9-0.4,2.5C68.2,85.4,67.3,86.2,66.1,86.2z"/>
<path d="M74.4,23.7c0.2,0,0.4-0.1,0.4-0.4c0.2-0.2,0.8-0.1,0.5-0.8c0,0-0.1,0.1-0.1,0.1c0.4,0.3,0.6-0.1,0.7-0.4c0,0,0,0,0,0
	c0.3,0,0.4-0.2,0.4-0.5c0,0,0,0.1,0,0.1c1,0.1,0.5,0.9,0.5,1.4c-0.2,0.3-0.5,0.6-0.6,0.9c-1,2.8-3,4.6-5,6.4
	c-3.1,2.9-6.5,4.9-10.1,6.8c0.1-1.5-0.8-3.4,1.2-4.2c0,0,0,0,0,0c1.4-0.8,3.1-0.8,4.2-2.4l0-0.1c0,0-0.1,0-0.1,0
	c0.5,0.3,0.8-0.1,1-0.5c0,0,0,0.1,0,0.1c0.8-0.3,1.3-1,1.8-1.7c0,0,0,0,0,0c0.3-0.3,0.6-0.6,0.9-0.9c0.1,0,0.2,0,0.2-0.1
	c0.3-0.2,0.7-0.4,0.8-0.9c0,0,0,0,0,0c0.4,0.1,0.5-0.2,0.7-0.5c0,0,0,0,0,0c0.2-0.1,0.4-0.1,0.4-0.5c0,0,0.1,0.1,0.1,0.1
	c0.6-0.3,1-0.7,1.4-1.3c0,0,0,0,0,0C73.8,24.3,74.1,24,74.4,23.7z"/>
<path d="M61.3,37.3c3.6-1.8,7-3.9,10.1-6.8c2-1.9,3.9-3.6,5-6.4c0.1-0.3,0.4-0.6,0.6-0.9c-0.3,1.6,0,3.3,0,4.9
	c-1.8,1.8-3.7,3.5-5.5,5.3c-3,2.9-6.4,4.8-10.1,6C61.3,38.7,61.3,38,61.3,37.3z"/>
<path d="M69.6,82.5c-4.6-1.1-8.7-3.2-11.9-7.5c-1.5-2.1-2.7-4.7-5.2-5.8c-0.6-0.3,0.3-0.8,0.2-1.2c0.5-0.5,1.1-0.3,1.7-0.3
	c0.2,0.1,0.4,0.3,0.6,0.4c0.2,0.3,0.4,0.6,0.7,0.9c0,0,0,0.2,0,0.2c0.5,1,1.3,1.9,2,2.7c0,0,0.1,0,0.1,0c0.1,0.1,0.3,0.3,0.4,0.4
	c0,0-0.1,0-0.1,0c0.2,0.2,0.4,0.4,0.5,0.6c0.4,0.6,0.8,1.1,1.2,1.7c0.1,0.3,0.2,0.6,0.5,0.5c0,0-0.1,0-0.1,0c0,0.6,0.4,0.7,0.8,0.8
	c0,0,0-0.1,0-0.1c-0.1,0.4,0.2,0.5,0.4,0.6l0,0.2c0,0,0.2,0,0.2,0c1.7,1.9,3.9,2.5,6.1,2.8l0,0c-0.2,0.6,0.1,0.4,0.4,0.4l0,0
	C68.5,80.7,69.4,81.4,69.6,82.5z"/>
<path d="M19.3,31.6c0.4-2.1,2.3-1.7,3.5-2.6c1.4-1,2.7-2.2,4.1-3.2c1.3-0.9,2.6-1.9,4.3-1.8c0,0.8,0,1.6,0,2.4
	c-2.8,0.6-5,2.7-7.2,4.5c-2.1,1.7-3.4,4.2-5.7,5.6c0.8-2.2,2.3-3.7,4-5.6C21.1,31.2,20.2,31.4,19.3,31.6z"/>
<path d="M15.6,85c0-1,0-1.9,0-2.9c0.7,0,1.4,0,2.1,0c-0.1,0.5-0.1,1.1,0.2,1.6c2.1,3.2,4.5,6.2,6.9,9.1c0.2,0.2,0.7,0.2,1,0.2
	c0.1,0.2,0.2,0.4,0.3,0.6c0.5,0.6,0.5,1-0.4,1c-0.9,0-1.9,0-2.8,0c-0.1-0.2-0.1-0.6-0.2-0.7c-1.6-1.8-2.9-3.9-4.1-6.1
	C17.9,86.6,17,85.2,15.6,85z"/>
<path d="M73.1,85.5c0.3-1.5-0.8-2.1-1.5-3c-0.6-0.8-0.7-1.2,0.4-1.3c0.4,0,0.8,0.1,1.3,0.1c-0.5,1.4,0.7,1.4,1.3,1.8
	c3.3,2.2,4.4,5.6,4.6,9.7c0,0.4,0,0.8-0.4,1.1c-0.6-0.2-0.6-1.1-1-1.5c0,0,0,0,0,0c-0.1-0.5-0.4-0.9-0.7-1.2
	c-0.2-0.5-0.3-0.9-0.5-1.4c-0.2-0.1-0.4-0.3-0.5-0.4c0,0,0,0,0,0c0-0.6-0.2-1-0.7-1.2l0,0c0-0.6-0.2-1-0.7-1.2l0,0
	c-0.1-0.8-0.5-1-1.1-0.8l0,0C73.4,85.9,73.2,85.7,73.1,85.5L73.1,85.5z"/>
<path d="M76.5,89.8c0.2,0.5,0.3,0.9,0.5,1.4c-0.1,0.7,0.2,1,0.7,1.2c0,0,0,0,0,0c0,0.9-0.1,1.6-1.2,1.2c-0.8-0.3-1.6-0.4-2.4-0.7
	c-1.2-0.5-2.1-1.4-2-3.1c0.1-2-0.3-3.8-0.7-5.7l0,0c0.9,0,1.2,1,1.8,1.4c0,0,0,0,0,0c0.1,0.2,0.2,0.4,0.4,0.6c0,0,0,0,0,0
	c0.2,0.5,0.5,0.9,1.1,0.8c0,0,0,0,0,0c-0.1,0.7,0,1.2,0.7,1.2c0,0,0,0,0,0c-0.1,0.7,0,1.2,0.7,1.2l0,0C76,89.7,76.2,89.8,76.5,89.8z
	"/>
<path d="M15.6,85c1.5,0.3,2.3,1.6,3,2.8c1.3,2.2,2.6,4.2,4.1,6.1c0.1,0.2,0.1,0.5,0.2,0.7c-2.5,0.4-4-1.3-5.4-3.2
	C16.1,89.5,15.5,87.3,15.6,85z"/>
<path d="M19.3,31.6c0.9-0.2,1.8-0.4,3.1-0.7c-1.7,1.9-3.2,3.5-4,5.6c-0.2,0.4-0.5,0.8-0.8,1.2c-0.7,0.1-1.1,0.4-1,1.3
	c-0.1,0.8-0.2,1.5-1.1,1.6c0-1.4,0-2.7,0-4.1c0.3-0.6,1-0.8,0.9-1.6C17.4,33.7,17.9,32.2,19.3,31.6z"/>
<path d="M3.9,35.7c-0.1,0.8-0.2,1.6-0.3,2.4c-0.6,2.6-0.9,5.3-2.2,7.7c-0.7-3.4-0.6-6.6,1.1-9.6C2.9,35.7,3.2,35,3.9,35.7z"/>
<path d="M73.3,81.4c-0.4,0-0.8-0.1-1.3-0.1c-1.2-0.7-2.4-1.4-3.8-1.5c0,0,0,0,0,0c0-0.2,0.2-0.3,0-0.5c-0.2-0.2-0.3,0-0.4,0
	c0,0,0,0,0,0c2.3-0.2,4.5-0.6,6.5-2.2l0-0.1c0,0-0.1,0-0.1,0c0.6,0.5,0.7-0.1,0.9-0.5c0.1,0.3,0.3,0.1,0.4,0.1
	C75.5,78.7,74.4,80,73.3,81.4z"/>
<path d="M17.6,82.1c-0.7,0-1.4,0-2.1,0c0-0.7-0.1-1.4-0.1-2.1c0.1-1.6,0.6,0,0.9-0.1c0,0,0-0.1,0-0.1c0.2,0.7,0.6,1.3,1.1,1.8
	c0,0,0,0,0,0C17.6,81.7,17.6,81.9,17.6,82.1L17.6,82.1z"/>
<path d="M16.5,34.9c0,0.8-0.7,1-0.9,1.6c0-0.4,0-0.8,0-1.2C15.9,35.2,16.2,35,16.5,34.9z"/>
<path d="M15.5,70.4c0.1,0.5,0.3,1.1,0.2,1.6C15.4,71.5,15.4,70.9,15.5,70.4z"/>
<path d="M26,93.6c-0.1-0.2-0.2-0.4-0.3-0.6c0,0,0,0,0,0c0.2,0.1,0.4,0.1,0.6,0.2l-0.1,0c0,0-0.1,0.1-0.1,0.1
	C26.1,93.3,26.1,93.5,26,93.6z"/>
<path d="M71.4,84.1c-0.1-0.1-0.2-0.3-0.3-0.4C71.6,83.6,71.3,84,71.4,84.1C71.4,84.1,71.4,84.1,71.4,84.1z"/>
<path d="M49.6,66.5c0,0,0,0.1,0,0.1c0,0-0.1,0-0.1,0.1c0,0,0-0.1,0-0.1C49.6,66.5,49.6,66.5,49.6,66.5z"/>
<path d="M65.7,86.4c0.1-0.2,0.2-0.3,0.4-0.2C66.1,86.4,65.9,86.5,65.7,86.4z"/>
<path d="M29.8,93.3c-0.9,0.3-1.3-0.4-1.7-1c-3-4-5.9-8-8.8-12.1c-1.2-1.7-2-3.6-3.2-5.2c-0.2-0.3-0.1-0.9-0.2-1.4
	c2.5,2.7,4,6.2,6.2,9.2C24.7,86.2,27.3,89.8,29.8,93.3z"/>
<path d="M16.7,39.1c-0.1-0.9,0.3-1.2,1-1.3C17.6,38.5,17.2,38.9,16.7,39.1z"/>
<path d="M70.4,76.1c-1.3,1.4-3.9,0.9-5-0.8C67,75.8,68.7,76.2,70.4,76.1z"/>
<path d="M72.7,75.1c-0.3,1.5-1,1.6-2.1,1C71.3,75.7,72,75.4,72.7,75.1z"/>
<path d="M75.2,73.2c0,0.9-0.2,1.5-1.2,1C74.4,73.8,74.8,73.5,75.2,73.2z"/>
<path d="M74,74.2c0.2,1.3-0.6,1.1-1.3,1C73.1,74.8,73.5,74.5,74,74.2z"/>
<path d="M76.3,72c0.2,1-0.2,1.4-1.1,1.2C75.5,72.8,75.9,72.4,76.3,72z"/>
<path d="M65.2,75.3c-0.6,0-1.4,0.2-1.6-0.9C64.2,74.7,64.7,75,65.2,75.3z"/>
<path d="M77,70.8c0,0.6,0.1,1.3-0.7,1.2C76.5,71.6,76.8,71.2,77,70.8z"/>
<path d="M63.7,74.4c-0.6,0-1.1,0-1.1-0.9C63,73.8,63.3,74.1,63.7,74.4z"/>
<path d="M59.5,70c-0.1-0.2-0.3-0.4-0.4-0.6C59.2,69.6,59.4,69.8,59.5,70z"/>
<path d="M73.4,20.3c0,1.3-0.9,0.8-1.4,0.9c-0.8,0.1-1,0.2-0.6,1.2c0.5,1.6-0.7,2.8-2.3,2.5c0.1-0.1,0.1-0.3,0.2-0.3
	c1.9-1.7,1.9-1.7,0-3.2C70.5,20,72,20.2,73.4,20.3z"/>
<path d="M75.6,18.5c0,1.7-0.9,2-2.1,1.8C74.1,19.8,74.9,19.2,75.6,18.5z"/>
<path d="M91.3,4.6c-0.4,1.7-1.5,2.2-2.9,2.3C89.2,5.8,90.1,5,91.3,4.6z"/>
<path d="M85.7,9c-0.1,1.6-1,1.8-2.1,1.7C84.1,9.8,85,9.5,85.7,9z"/>
<path d="M86.8,8.2c0.2,1.1-0.4,1-1.1,0.9C85.9,8.6,86.3,8.3,86.8,8.2z"/>
<path d="M87.8,7.3c0.1,0.9-0.4,1.1-1,0.9C87,7.8,87.3,7.5,87.8,7.3z"/>
<path d="M88.4,6.9c0.1,0.7-0.2,0.7-0.6,0.5C87.9,7,88.1,6.9,88.4,6.9z"/>
<path d="M19.7,21.1c0.7-1.1,1.9-1.2,2.9-1.8C22,20.8,20.9,21.2,19.7,21.1z"/>
<path d="M18.1,28.6c-0.5,1-1.5,1.2-2.4,1.5C16.1,28.9,17,28.6,18.1,28.6z"/>
<path d="M20.2,27c-0.3,0.6-0.8,1-1.4,1.2C18.6,26.9,19.2,26.7,20.2,27z"/>
<path d="M23.7,23.4c-0.1,0.8-0.7,1-1.1,1.3C22.5,23.7,22.7,23.1,23.7,23.4z"/>
<path d="M21.3,25.9c-0.1,0.6-0.6,0.9-1,1.1C19.9,25.8,20.4,25.6,21.3,25.9z"/>
<path d="M25.2,22.5c-0.4,0.5-0.8,1.2-1.5,1C23.8,22.2,24.5,22.4,25.2,22.5z"/>
<path d="M24.9,18.3c0.4-0.3,0.9-0.7,1.4-0.5C26,18.7,25.6,19.1,24.9,18.3z"/>
<path d="M26.8,21.3c-0.2,0.7-0.7,0.9-1.3,0.8C25.7,21.3,26.2,21.1,26.8,21.3z"/>
<path d="M30,19.3c-0.2,0.6-0.6,0.7-1.1,0.8C28.8,19.1,29.4,19.2,30,19.3z"/>
<path d="M18.5,21.6c0.3-0.4,0.7-0.7,1.2-0.5C19.5,21.8,19,21.7,18.5,21.6z"/>
<path d="M16.4,23.1c-0.1-0.7,0.5-0.8,0.8-0.9C17.2,22.8,17,23.2,16.4,23.1z"/>
<path d="M22,25.3c-0.3,0.3-0.3,0.9-0.9,0.5C21.3,25.2,21.6,25.2,22,25.3z"/>
<path d="M18.7,28.2c-0.1,0.4-0.2,0.8-0.7,0.5C18.1,28.1,18.3,28,18.7,28.2z"/>
<path d="M23.5,19.1c0.1-0.5,0.4-0.5,0.8-0.6C24.2,19.1,24,19.3,23.5,19.1z"/>
<path d="M22.8,19.2c0.2-0.1,0.5-0.1,0.7-0.2C23.4,19.8,23.2,19.6,22.8,19.2z"/>
<path d="M28.9,20c-0.1,0.4-0.4,0.5-0.7,0.5C28.2,20,28.6,20,28.9,20z"/>
<path d="M28.2,20.5c-0.1,0.4-0.3,0.6-0.7,0.5C27.5,20.4,27.8,20.4,28.2,20.5z"/>
<path d="M27.5,20.9c-0.1,0.5-0.3,0.6-0.7,0.5C26.9,20.9,27.1,20.8,27.5,20.9z"/>
<path d="M30.4,18.9c0.1,0.5-0.1,0.5-0.4,0.4C30,19,30.1,18.9,30.4,18.9z"/>
<path d="M16.2,23.2c0-0.1,0.1-0.1,0.1-0.1c0,0.1,0.1,0.2,0.1,0.3C16.4,23.3,16.3,23.2,16.2,23.2z"/>
<path d="M17.8,22c0.1-0.4,0.4-0.4,0.7-0.4C18.3,21.7,18,21.9,17.8,22z"/>
<path d="M66.6,30.8c-1.1,1.6-2.8,1.6-4.2,2.4c-0.1-0.2-0.3-0.6-0.1-0.7C63.8,31.7,65,30.5,66.6,30.8z"/>
<path d="M88.4,10.6c-0.4,0.9-1.2,1.1-1.8,1.6C86.5,10.8,87.2,10.3,88.4,10.6z"/>
<path d="M69.3,28.5c-0.5,0.7-1,1.4-1.8,1.7C67.6,28.8,68.3,28.4,69.3,28.5z"/>
<path d="M73.6,24.5c-0.4,0.6-0.8,1-1.4,1.3C72,24.5,72.7,24.4,73.6,24.5z"/>
<path d="M71.2,26.6c-0.1,0.5-0.5,0.7-0.8,0.9C70.3,26.9,70.4,26.4,71.2,26.6z"/>
<path d="M74.4,23.7c-0.3,0.3-0.6,0.6-0.9,0.9C73.4,23.7,73.9,23.6,74.4,23.7z"/>
<path d="M70.2,27.7c-0.3,0.3-0.6,0.6-0.9,0.9C69.2,27.8,69.7,27.7,70.2,27.7z"/>
<path d="M67.6,30.2c-0.3,0.4-0.5,0.9-1,0.5C66.6,29.9,67.1,30,67.6,30.2z"/>
<path d="M71.8,26.1c-0.1,0.3-0.3,0.6-0.7,0.5C71.1,26.1,71.4,26.1,71.8,26.1z"/>
<path d="M76,22.2c-0.2,0.3-0.3,0.7-0.7,0.4C75.4,22.1,75.6,22,76,22.2z"/>
<path d="M75.4,22.5c0.3,0.7-0.3,0.6-0.5,0.8C74.9,22.9,74.9,22.6,75.4,22.5z"/>
<path d="M72.2,25.7c0,0.4-0.2,0.4-0.4,0.5C71.8,25.9,71.9,25.7,72.2,25.7z"/>
<path d="M76.4,21.7c0,0.3-0.1,0.5-0.4,0.5C76,21.8,76.2,21.7,76.4,21.7z"/>
<path d="M84.9,13.6c0,0.1-0.1,0.2-0.2,0.2c0-0.1-0.1-0.2-0.2-0.3C84.7,13.5,84.8,13.5,84.9,13.6z"/>
<path d="M74.3,77.1c-1.9,1.6-4.2,1.9-6.5,2.2c-2.3-0.3-4.4-0.9-6.1-2.8c1.5,0.1,2.8,1.1,4.3,1.4c2.2,0.5,4.2,0.5,6.3-0.4
	C73,77.3,73.6,76.7,74.3,77.1z"/>
<path d="M57.8,71.8c-0.8-0.8-1.5-1.7-2-2.7C56.9,69.5,57.8,70.2,57.8,71.8z"/>
<path d="M55.8,68.9c-0.2-0.3-0.4-0.6-0.7-0.9C55.5,68.2,55.9,68.3,55.8,68.9z"/>
<path d="M61.1,75.8c-0.4-0.1-0.7-0.3-0.8-0.8C60.8,75,61.1,75.2,61.1,75.8z"/>
<path d="M58.7,72.8c-0.2-0.2-0.4-0.4-0.5-0.6C58.6,72.1,58.7,72.5,58.7,72.8z"/>
<path d="M75.1,76.5c-0.2,0.4-0.3,1-0.9,0.5C74.4,76.5,74.7,76.5,75.1,76.5z"/>
<path d="M60.5,74.9c-0.4,0.2-0.5-0.1-0.5-0.5C60.2,74.5,60.4,74.6,60.5,74.9z"/>
<path d="M61.5,76.3c-0.2-0.1-0.5-0.3-0.4-0.6C61.4,75.8,61.5,76,61.5,76.3z"/>
<path d="M58.3,72.2c-0.1-0.1-0.3-0.3-0.4-0.4C58.2,71.7,58.3,71.9,58.3,72.2z"/>
<path d="M25.7,93c-0.3-0.1-0.8,0-1-0.2c-2.4-2.9-4.8-5.9-6.9-9.1c-0.3-0.5-0.2-1-0.2-1.6c0,0,0,0,0,0c0.3,0.3,0.6,0.6,1,0.9
	c0,0,0,0,0,0c0.2,0.3,0.5,0.7,0.7,1c0,0,0,0.2,0,0.2s0.1,0,0.1,0c0.2,0.3,0.4,0.6,0.6,0.8c0,0,0,0,0,0c0.1,0.2,0.1,0.5,0.4,0.4
	c0,0,0,0,0,0c0,0.3,0,0.6,0.4,0.4c0,0-0.1,0-0.1,0c0.1,0.5,0.2,0.8,0.7,0.8c0,0,0,0,0,0c0,0.6,0.2,0.8,0.7,0.8c0,0,0-0.1,0-0.1
	c-0.2,0.5,0.2,0.6,0.4,0.8c0,0,0,0,0,0c0.1,0.1,0.3,0.3,0.4,0.4c0,0,0,0,0,0c0.1,0.1,0.2,0.3,0.3,0.4c0.1,0.3,0.1,0.6,0.4,0.8
	c0.1,0.1,0.2,0.3,0.3,0.4c0,0,0,0,0,0c0.1,0.2,0.1,0.4,0.4,0.4c0,0,0,0,0,0c0,0.3,0.1,0.6,0.4,0.6c0,0.4,0.1,0.6,0.5,0.6
	C25.3,92.2,25.5,92.6,25.7,93L25.7,93z"/>
<path d="M17.6,81.5c-0.6-0.4-0.9-1-1.1-1.8C17.6,79.7,17.7,80.5,17.6,81.5z"/>
<path d="M18.7,83c-0.3-0.3-0.6-0.6-1-0.9c0-0.2-0.1-0.4-0.1-0.5C18.3,81.6,18.9,81.9,18.7,83z"/>
<path d="M25.7,92.9c-0.2-0.4-0.4-0.8-0.6-1.1c0.7,0.1,1,0.6,1.2,1.3C26.2,93,25.9,93,25.7,92.9z"/>
<path d="M21.4,86.6c-0.5,0.1-0.7-0.3-0.7-0.8C21.3,85.7,21.5,86,21.4,86.6z"/>
<path d="M22.1,87.5c-0.5,0-0.7-0.3-0.7-0.8C22,86.5,22.2,86.8,22.1,87.5z"/>
<path d="M19.4,84c-0.2-0.3-0.5-0.7-0.7-1C19.3,82.9,19.4,83.4,19.4,84z"/>
<path d="M20.1,85c-0.2-0.3-0.4-0.6-0.6-0.8C19.9,84.2,20.1,84.5,20.1,85z"/>
<path d="M22.5,88.2c-0.2-0.2-0.6-0.3-0.4-0.8C22.5,87.5,22.6,87.8,22.5,88.2z"/>
<path d="M23.2,89c-0.1-0.1-0.2-0.3-0.3-0.4C23.1,88.6,23.6,88.4,23.2,89z"/>
<path d="M23.9,90.2c-0.1-0.1-0.2-0.3-0.3-0.4C24.2,89.4,23.9,90,23.9,90.2z"/>
<path d="M20.4,85.4c-0.3,0-0.3-0.2-0.4-0.4C20.2,85.1,20.3,85.2,20.4,85.4z"/>
<path d="M20.8,85.8c-0.4,0.1-0.4-0.2-0.4-0.4C20.6,85.4,20.7,85.5,20.8,85.8z"/>
<path d="M22.9,88.6c-0.1-0.1-0.3-0.3-0.4-0.4C22.7,88.2,22.9,88.3,22.9,88.6z"/>
<path d="M24.3,90.6c-0.3,0-0.3-0.2-0.4-0.4C24.1,90.2,24.3,90.3,24.3,90.6z"/>
<path d="M24.6,91.2c-0.3-0.1-0.4-0.3-0.4-0.6C24.4,90.8,24.5,91,24.6,91.2z"/>
<path d="M67.9,79.3c0.1,0,0.2-0.3,0.4,0c0.2,0.2,0,0.3,0,0.5C68,79.7,67.6,79.8,67.9,79.3z"/>
<path d="M76,89.4c-0.8,0-0.8-0.6-0.7-1.2C75.7,88.4,76,88.8,76,89.4z"/>
<path d="M75.2,88.2c-0.7,0-0.8-0.5-0.7-1.2C75,87.2,75.2,87.6,75.2,88.2z"/>
<path d="M74.5,87c-0.6,0.1-0.8-0.3-1.1-0.8C74.1,86,74.5,86.2,74.5,87z"/>
<path d="M77.7,92.4c-0.5-0.2-0.8-0.6-0.7-1.2C77.3,91.5,77.6,91.9,77.7,92.4z"/>
<path d="M73.5,86.2c-0.1-0.2-0.2-0.4-0.4-0.6C73.2,85.7,73.4,85.9,73.5,86.2z"/>
<path d="M76.5,89.8c-0.3,0-0.5-0.1-0.5-0.4C76.1,89.5,76.3,89.6,76.5,89.8z"/>
<polygon points="66.1,86.2 66.1,86.2 66.1,86.2 "/>
<path d="M76.4,21.8c1,0.1,0.5,0.9,0.5,1.4c-0.3,1.6,0,3.3,0,4.9c0.2,13.4,0.1,26.7,0,40.1c0,0.9,0,1.7,0,2.6c1.1-0.8,1.8-2,2.1-3.3
	v-2.1c-0.1-0.4-0.2-0.9-0.4-1.3c-0.6-1.2-1.3-2.3-0.9-3.9c0.5,0.4,0.9,1,1.3,1.6V18.3c-0.8,0.9-1.7,1.8-2.5,2.7
	C76.5,21.2,76.5,21.6,76.4,21.8z"/>
</svg>
